<svg width="103" height="34" viewBox="0 0 103 34" fill="none" xmlns="http://www.w3.org/2000/svg">
<mask id="mask0_17_580" style="mask-type:luminance" maskUnits="userSpaceOnUse" x="0" y="1" width="336" height="105">
<path d="M336 1.22619H0V105.226H336V1.22619Z" fill="white"/>
</mask>
<g mask="url(#mask0_17_580)">
<path d="M8.76913 14.5982C7.93411 14.5982 7.21723 14.9079 6.61691 15.5242C6.01659 16.1421 5.71643 16.8845 5.71643 17.7531C5.71643 18.6392 6.01659 19.3912 6.61691 20.0075C7.21723 20.6254 7.93411 20.9335 8.76913 20.9335C9.16828 20.9335 9.54827 20.8856 9.90591 20.7866C10.2667 20.6844 10.5318 20.5823 10.6978 20.4801L10.9214 20.3268L12.4222 23.4114C12.3072 23.4929 12.1443 23.5967 11.9368 23.7244C11.7276 23.8489 11.2503 24.0182 10.5062 24.2353C9.76541 24.4524 8.96871 24.561 8.11772 24.561C6.23053 24.561 4.57486 23.9 3.14909 22.5748C1.72173 21.2465 1.00964 19.6562 1.00964 17.8042C1.00964 15.9362 1.72173 14.33 3.14909 12.9888C4.57486 11.6445 6.23053 10.9707 8.11772 10.9707C8.96871 10.9707 9.75264 11.0713 10.4679 11.2709C11.1864 11.4721 11.6973 11.6716 12.0007 11.8712L12.4222 12.1714L10.9214 15.1985C10.3721 14.7994 9.65365 14.5982 8.76913 14.5982Z" fill="#F86006"/>
<path d="M12.9976 24.1842V11.3475H17.4297V13.1996H17.4808C17.5096 13.1325 17.5638 13.0495 17.6405 12.9505C17.7171 12.8483 17.8784 12.6727 18.1258 12.4204C18.3765 12.1698 18.6447 11.9447 18.9305 11.7435C19.2147 11.5439 19.5819 11.3651 20.029 11.207C20.4792 11.0506 20.9391 10.9707 21.4085 10.9707C21.8938 10.9707 22.368 11.0378 22.8326 11.1687C23.3004 11.3012 23.6437 11.4353 23.8608 11.5711L24.2121 11.769L22.36 15.5242C21.8108 15.0564 21.0412 14.8217 20.0545 14.8217C19.5213 14.8217 19.0646 14.9399 18.6815 15.173C18.2983 15.4077 18.0253 15.6935 17.864 16.0288C17.7059 16.3609 17.5926 16.6451 17.5255 16.8782C17.4617 17.1129 17.4297 17.2965 17.4297 17.4274V24.1842H12.9976Z" fill="#F86006"/>
<path d="M25.1096 22.6004C23.9089 21.2896 23.3086 19.6818 23.3086 17.7786C23.3086 15.8755 23.9089 14.2661 25.1096 12.9505C26.3102 11.6317 27.8366 10.9707 29.6886 10.9707C31.3906 10.9707 32.794 11.5056 33.8973 12.5737V11.3475H38.3294V24.1842H33.9484V22.7345H33.8973C32.794 23.9527 31.3906 24.561 29.6886 24.561C27.8366 24.561 26.3102 23.908 25.1096 22.6004ZM28.8775 15.6009C28.3028 16.1677 28.0154 16.8941 28.0154 17.7786C28.0154 18.66 28.29 19.3816 28.8392 19.9436C29.3916 20.5024 30.1181 20.7803 31.017 20.7803C31.8855 20.7803 32.5976 20.4977 33.1564 19.9309C33.7184 19.3657 33.9994 18.6472 33.9994 17.7786C33.9994 16.8941 33.7089 16.1677 33.1309 15.6009C32.5561 15.0357 31.8504 14.7515 31.017 14.7515C30.1644 14.7515 29.4523 15.0357 28.8775 15.6009Z" fill="#F86006"/>
<path d="M43.3588 11.3475L46.4818 18.3279L49.6111 11.3475H54.8671L47.9889 24.1842H44.9809L38.1028 11.3475H43.3588Z" fill="#F86006"/>
<path d="M54.6423 11.3476V24.1842H59.0745V11.3476H54.6423Z" fill="#F86006"/>
<path d="M60.9741 24.1842V11.3475H65.4063V12.6951H65.4574C66.6069 11.5455 67.8331 10.9707 69.136 10.9707C69.7698 10.9707 70.4005 11.0538 71.0263 11.2198C71.6522 11.3859 72.2525 11.6461 72.8273 11.9989C73.4021 12.3486 73.8683 12.8451 74.2259 13.487C74.5868 14.1304 74.7688 14.876 74.7688 15.7222V24.1842H70.3366V16.9229C70.3366 16.2587 70.1227 15.6775 69.698 15.1794C69.2717 14.678 68.716 14.4258 68.0311 14.4258C67.3669 14.4258 66.7618 14.686 66.2174 15.2049C65.6761 15.7206 65.4063 16.2938 65.4063 16.9229V24.1842H60.9741Z" fill="#F86006"/>
<path d="M75.7158 27.3391L79.3432 25.5637C80.0106 26.6621 81.1713 27.2114 82.8238 27.2114C83.5902 27.2114 84.3023 26.9639 84.9633 26.4705C85.6227 25.9804 85.9532 25.2268 85.9532 24.2098V23.2582C85.1692 24.1267 83.7658 24.561 81.7445 24.561C79.8925 24.561 78.3661 23.908 77.1655 22.6004C75.9648 21.2896 75.3645 19.6818 75.3645 17.7786C75.3645 15.8755 75.9648 14.2661 77.1655 12.9505C78.3661 11.6317 79.8925 10.9707 81.7445 10.9707C83.3954 10.9707 84.7733 11.4801 85.8765 12.4971H85.9532V11.3475H90.3853V24.5355C90.3853 26.6206 89.6908 28.23 88.3034 29.3636C86.9191 30.5004 85.0926 31.0688 82.8238 31.0688C79.1532 31.0688 76.7839 29.825 75.7158 27.3391ZM80.9335 15.6009C80.3587 16.1677 80.0713 16.8941 80.0713 17.7786C80.0713 18.66 80.3459 19.3816 80.8951 19.9436C81.4476 20.5024 82.174 20.7803 83.0729 20.7803C83.9414 20.7803 84.6535 20.4977 85.2123 19.9309C85.7743 19.3657 86.0554 18.6472 86.0554 17.7786C86.0554 16.8941 85.7648 16.1677 85.1868 15.6009C84.612 15.0357 83.9063 14.7515 83.0729 14.7515C82.2203 14.7515 81.5082 15.0357 80.9335 15.6009Z" fill="#F86006"/>
<path d="M97.7394 10.9707C98.4755 10.9707 99.2019 11.0538 99.9172 11.2198C100.636 11.3859 101.171 11.5519 101.52 11.7179L102.044 11.9734L100.594 14.8728C99.5931 14.3412 98.6415 14.0745 97.7394 14.0745C97.2413 14.0745 96.8869 14.1304 96.6793 14.2406C96.4701 14.3475 96.3664 14.5503 96.3664 14.8473C96.3664 14.9159 96.3727 14.9846 96.3855 15.0517C96.4015 15.1155 96.4366 15.1778 96.4877 15.2369C96.5388 15.2975 96.5835 15.3486 96.6218 15.3901C96.6633 15.4284 96.7368 15.4732 96.839 15.5242C96.9411 15.5753 97.0194 15.6137 97.0753 15.6392C97.1343 15.6647 97.2301 15.7031 97.3626 15.7542C97.4984 15.8021 97.5989 15.8372 97.6628 15.8627C97.7299 15.8883 97.8432 15.9266 98.0013 15.9777C98.1577 16.0256 98.2791 16.0575 98.3653 16.0735C98.8842 16.2267 99.336 16.396 99.7192 16.578C100.102 16.7616 100.506 17.0123 100.933 17.3316C101.357 17.6477 101.686 18.0469 101.916 18.5322C102.149 19.0144 102.267 19.5636 102.267 20.1799C102.267 23.1017 100.24 24.561 96.1875 24.561C95.2711 24.561 94.4009 24.4205 93.5755 24.1395C92.7485 23.8553 92.1513 23.5695 91.7809 23.2837L91.2317 22.8303L93.0327 19.8031C93.1684 19.9229 93.3456 20.0618 93.5627 20.2183C93.7799 20.3763 94.171 20.5935 94.7378 20.8697C95.303 21.1427 95.7948 21.2784 96.2131 21.2784C97.1327 21.2784 97.5926 20.9703 97.5926 20.3524C97.5926 20.0714 97.4744 19.8526 97.2413 19.6946C97.0066 19.5333 96.609 19.3529 96.047 19.1517C95.4882 18.9521 95.0524 18.7685 94.7378 18.6025C93.9363 18.1858 93.3025 17.7148 92.8347 17.1911C92.3653 16.6642 92.1322 15.9649 92.1322 15.0964C92.1322 13.7983 92.6367 12.7877 93.6458 12.0628C94.6548 11.3348 96.0183 10.9707 97.7394 10.9707Z" fill="#F86006"/>
</g>
<path d="M58.6845 6.63112C62.7909 9.01645 56.1539 12.8227 56.1698 8.07285C56.1555 12.8211 49.5407 8.97813 53.6616 6.61516C49.5407 8.97813 49.5631 1.32561 53.6696 3.71253C49.5631 1.32721 56.2002 -2.47909 56.1874 2.2708C56.2002 -2.47749 62.8149 1.36712 58.6957 3.7285C62.8133 1.36712 62.7909 9.01645 58.6845 6.63112Z" fill="#F86006"/>
<mask id="mask1_17_580" style="mask-type:luminance" maskUnits="userSpaceOnUse" x="52" y="1" width="8" height="8">
<path d="M59.6746 1.83928H52.7262V8.7877H59.6746V1.83928Z" fill="white"/>
</mask>
<g mask="url(#mask1_17_580)">
<path d="M55.8914 4.65959C56.1468 4.74102 56.3448 4.90706 56.4853 5.15773C56.629 5.4052 56.6721 5.66226 56.613 5.93049C56.5524 6.19552 56.4023 6.3951 56.1596 6.53081C55.9329 6.65854 55.7125 6.69526 55.4954 6.63938L56.0702 7.65482L55.489 7.98052L54.0393 5.43873L54.6141 5.11303L54.729 5.30462H54.7354C54.7833 5.05874 54.9174 4.87034 55.1442 4.74261C55.3868 4.6069 55.6359 4.57976 55.8914 4.65959ZM55.9169 5.86024C55.9504 5.74528 55.9329 5.63033 55.8658 5.51537C55.802 5.39722 55.7125 5.32218 55.5976 5.29185C55.4826 5.25832 55.3677 5.27588 55.2527 5.34294C55.141 5.4068 55.0691 5.4994 55.0356 5.61755C55.0053 5.73251 55.0244 5.84746 55.0931 5.96242C55.1569 6.07737 55.2463 6.15082 55.3613 6.17956C55.4794 6.20989 55.5944 6.19552 55.7062 6.13485C55.8163 6.06779 55.8866 5.97519 55.9169 5.86024Z" fill="white"/>
<mask id="mask2_17_580" style="mask-type:luminance" maskUnits="userSpaceOnUse" x="55" y="1" width="5" height="6">
<path d="M55.1785 1.93667H59.2658V6.33531H55.1785V1.93667Z" fill="white"/>
</mask>
<g mask="url(#mask2_17_580)">
<path d="M57.0843 5.93534L55.4685 3.11255L56.0497 2.78684L56.8033 4.10244V4.09606C56.8719 3.85816 56.9917 3.68733 57.1673 3.58514C57.2471 3.53884 57.3349 3.50531 57.4291 3.48296C57.5217 3.4622 57.6207 3.45103 57.7229 3.45103C57.8251 3.45103 57.9225 3.48136 58.0167 3.54044C58.1141 3.59632 58.1955 3.67934 58.2594 3.78951L58.8916 4.90074L58.3105 5.23284L57.7676 4.28126C57.7165 4.19664 57.6431 4.13757 57.5505 4.10244C57.4563 4.06412 57.3621 4.0737 57.2695 4.12799C57.1833 4.17589 57.1258 4.25572 57.097 4.37067C57.0667 4.48243 57.0747 4.57823 57.1226 4.65806L57.6654 5.60963L57.0843 5.93534Z" fill="white"/>
</g>
</g>
</svg>
